<?xml version="1.0" encoding="UTF-8"?><svg id="Layer_2" xmlns="http://www.w3.org/2000/svg" viewBox="0 0 230.11 73.87"><defs><style>.cls-1{fill:#007ca6;}</style></defs><g id="Layer_1-2"><path class="cls-1" d="M68.85,5.61c-2.88-2.94-7.24-4.14-12.77-4.82C50.58.15,43.92.02,37.25,0c-6.66.02-13.33.15-18.82.79-5.53.68-9.89,1.88-12.77,4.82C2.69,8.47,1.48,12.79.8,18.27.15,23.72.02,30.33,0,36.93c.02,6.61.15,13.22.8,18.66.69,5.48,1.89,9.81,4.86,12.66,2.88,2.94,7.24,4.14,12.77,4.82,5.49.65,12.16.77,18.82.79,6.66-.02,13.33-.15,18.82-.79,5.53-.68,9.89-1.88,12.77-4.82,2.96-2.86,4.17-7.18,4.86-12.66.65-5.45.78-12.06.8-18.66-.02-6.61-.15-13.22-.8-18.66-.69-5.48-1.89-9.81-4.86-12.66ZM64.64,33.76c-.37,2.51-1.76,4.8-3.6,6.56-1.84,1.76-4.1,3.03-6.45,4.05-3.38,1.46-6.55,2-10.35,2.76.65,0,.76,5.08.76,5.6,0,2.14-.02,4.27-.08,6.41-.04,1.41.18,2.7-.65,3.91-.26.39-2.68,1.07-3.4.79-.15-.06-.31-.13-.4-.26-.09-.12-.11-.27-.13-.42-.49-3.67-1.31-6.01-1.54-9.71-.22-3.54-1.01-11.95.39-15.33.32-.76.96-1.44,1.77-1.56.34-.05.88.04,1.1.45.71,1.28.32,2.85,1.01,4.15.07.13.15.25.28.31.13.06.29.03.43,0,5.01-1.13,9.81-2.87,13.64-6.37.21-.19.43-.41.3-.76-.03-.08-.08-.16-.15-.22-.23-.24-.56-.3-.87-.35-4.2-.68-8.54-.07-12.63,1.13-.41.12-.84.25-1.25.13-1.05-.31-.56-2.73-.45-3.6-11.12,11.62-24.76,25.85-25.61,26.49-.11.09-.27.1-.4.02l-3.37-2.09s3.94-4.01,9.36-9.55c-2.58.47-4.84.43-7.01-1.45-2.78-2.4-4.13-6.07-4.7-9.68-.57-3.64-.78-7.33-.88-11,1.65-.63,3.48-1.11,5.21-1.5.74,5.21,1.15,10.88,4.03,15.45,1.79,2.84,4.8,2.21,6.84-.18,1.26-1.47,1.9-3.37,2.25-5.26,1.09-5.84,1.11-11.92,1.02-17.85l5.1-1.44s1.43,12.66.87,18.54c0,.15-.14,1.24-.21,1.48-.06.09-.13.19-.2.3,9.1-9.3,17.83-18.26,18.89-19.45-4.67.75-10.51,1.92-10.51,1.92l-1.18-1.75s11.63-4.29,17.36-4.47c.35-.01.73,0,1.03.18.52.32.71,1.04.62,1.63-.28,1.81-3.61,14.82-3.83,15.21l-2.28-1.29c.14-.39,1.31-6.03,1.85-9.16-.81.84-5.87,6.15-12.14,12.7,2.75-.22,4.79-.62,7.58-1.02,2.65-.38,5.38-.67,8.01-.14,1.7.34,3.48,1.15,4.23,2.71.45.92.47,1.99.33,3Z"/><path class="cls-1" d="M97.25,39.2h3.84V15.52h-4.84v14.43c0,.99-.21,1.83-.62,2.52-.42.69-.92,1.26-1.52,1.71-.6.45-1.24.77-1.92.96-.68.2-1.29.3-1.82.3-.7,0-1.38-.1-2.04-.3-.67-.2-1.25-.51-1.77-.94-.52-.43-.93-1-1.25-1.71-.32-.71-.47-1.57-.47-2.59v-14.38h-4.59v14.38c0,2.04.32,3.7.97,4.97.65,1.27,1.45,2.27,2.39,2.99.95.73,1.97,1.21,3.07,1.46,1.1.25,2.08.37,2.94.37,1.36,0,2.6-.25,3.71-.74,1.11-.49,2.09-1.12,2.92-1.88l1,2.13Z"/><path class="cls-1" d="M111.61,24.02c.13-1.61.57-2.8,1.32-3.56s1.62-1.14,2.62-1.14c1.4,0,2.52.4,3.37,1.21s1.27,2.23,1.27,4.28v14.38h4.54v-14.33c0-1.91.4-3.31,1.2-4.2s1.73-1.33,2.79-1.33c1.4,0,2.52.4,3.37,1.21s1.27,2.23,1.27,4.28v14.38h4.54v-14.33c0-2.04-.27-3.71-.8-4.99s-1.21-2.29-2.04-3.02c-.83-.72-1.73-1.22-2.69-1.48s-1.88-.4-2.74-.4c-1.3,0-2.52.37-3.67,1.11s-2,1.62-2.57,2.64c-.4-.76-.88-1.38-1.45-1.85-.57-.48-1.16-.86-1.77-1.14s-1.21-.48-1.79-.59c-.58-.12-1.1-.17-1.57-.17-1.2,0-2.21.26-3.04.77-.83.51-1.54,1.11-2.14,1.8l-1-2.03h-3.84v23.68h4.84v-15.18Z"/><path class="cls-1" d="M174.67,39.2v-14.33c0-2.04-.27-3.71-.8-4.99s-1.21-2.29-2.04-3.02c-.83-.72-1.73-1.22-2.69-1.48s-1.88-.4-2.74-.4c-1.3,0-2.52.37-3.67,1.11s-2,1.62-2.57,2.64c-.4-.76-.88-1.38-1.45-1.85-.57-.48-1.16-.86-1.77-1.14s-1.21-.48-1.79-.59c-.58-.12-1.1-.17-1.57-.17-1.2,0-2.21.26-3.04.77-.83.51-1.54,1.11-2.14,1.8l-1-2.03h-3.84v23.68h4.84v-15.18c.13-1.61.57-2.8,1.32-3.56s1.62-1.14,2.62-1.14c1.4,0,2.52.4,3.37,1.21s1.27,2.23,1.27,4.28v14.38h4.54v-14.33c0-1.91.4-3.31,1.2-4.2s1.73-1.33,2.79-1.33c1.4,0,2.52.4,3.37,1.21s1.27,2.23,1.27,4.28v14.38h4.54Z"/><path class="cls-1" d="M202.99,15.52h-4.09l-.75,2.62c-.96-1.09-2.06-1.89-3.29-2.4-1.23-.51-2.51-.77-3.84-.77-1.66,0-3.22.32-4.66.96-1.45.64-2.71,1.52-3.79,2.64-1.08,1.12-1.94,2.44-2.57,3.96-.63,1.52-.95,3.13-.95,4.84s.32,3.33.95,4.84c.63,1.52,1.49,2.83,2.57,3.95,1.08,1.12,2.34,2,3.79,2.64,1.45.64,3,.96,4.66.96,1.33,0,2.64-.28,3.94-.84,1.3-.56,2.36-1.38,3.19-2.47l.75,2.72h4.09V15.52ZM197.51,30.55c-.37.99-.87,1.85-1.5,2.59-.63.74-1.38,1.33-2.24,1.75-.87.43-1.78.64-2.74.64s-1.88-.21-2.74-.64c-.86-.43-1.61-1.01-2.24-1.75-.63-.74-1.13-1.61-1.5-2.59-.37-.99-.55-2.04-.55-3.16s.18-2.17.55-3.16c.37-.99.86-1.85,1.5-2.6.63-.74,1.38-1.33,2.24-1.75.86-.43,1.78-.64,2.74-.64s1.88.21,2.74.64c.86.43,1.61,1.01,2.24,1.75.63.74,1.13,1.61,1.5,2.6.37.99.55,2.04.55,3.16s-.18,2.17-.55,3.16Z"/><path class="cls-1" d="M223.01,21.65c.55.73.98,1.58,1.3,2.57.32.99.47,2.04.47,3.16v11.81h4.84v-11.81c0-1.71-.24-3.33-.72-4.84-.48-1.52-1.19-2.83-2.11-3.96-.93-1.12-2.05-2-3.36-2.64s-2.79-.96-4.45-.96c-1.29,0-2.43.21-3.41.62s-1.92,1.11-2.81,2.1V3.11s-4.83,0-4.83,0v36.08h4.84v-11.91c0-1.45.19-2.69.57-3.71.38-1.02.86-1.85,1.45-2.47.58-.63,1.22-1.08,1.92-1.36s1.4-.42,2.09-.42c.83,0,1.6.21,2.32.62.71.41,1.35.98,1.89,1.71Z"/><path class="cls-1" d="M89.96,50.8c-.56-.61-1.22-1.08-1.98-1.43-.76-.35-1.6-.52-2.5-.52-.85,0-1.61.14-2.28.43-.67.28-1.27.68-1.79,1.2l-.53-1.33h-2.05v18.07h2.58v-6.67c.5.55,1.09.97,1.75,1.27.67.29,1.44.44,2.32.44s1.73-.17,2.5-.52,1.43-.82,1.98-1.43c.56-.61.99-1.32,1.31-2.14.31-.82.47-1.69.47-2.62s-.16-1.8-.47-2.62c-.32-.82-.75-1.53-1.31-2.13ZM88.77,57.26c-.2.53-.47,1-.81,1.4-.34.4-.75.72-1.22.95-.47.23-.96.35-1.49.35s-1.02-.08-1.49-.24c-.47-.16-.88-.41-1.23-.76-.35-.35-.63-.8-.82-1.36s-.3-1.24-.3-2.04c0-.75.1-1.39.3-1.94.2-.54.47-1,.82-1.36.35-.36.76-.63,1.23-.8.47-.17.96-.25,1.49-.25s1.02.11,1.49.33c.47.22.87.53,1.22.92.34.39.61.85.81,1.39.2.53.3,1.1.3,1.71s-.1,1.17-.3,1.71Z"/><path class="cls-1" d="M98.29,49.32c-.58.31-1.05.72-1.41,1.24l-.54-1.42h-2.07v12.79h2.61l.03-7.58c0-.43.09-.83.28-1.21.19-.38.44-.72.77-1,.32-.28.71-.51,1.16-.68.45-.17.93-.25,1.45-.25.16,0,.31.02.46.05.14.04.27.07.38.11.12.05.25.11.38.16l.67-2.43c-.74-.16-1.39-.24-1.96-.24-.88,0-1.61.16-2.19.47Z"/><path class="cls-1" d="M114.39,50.8c-.58-.61-1.27-1.08-2.06-1.43-.79-.35-1.62-.52-2.5-.52s-1.74.17-2.52.52c-.78.35-1.46.82-2.05,1.43-.58.6-1.05,1.32-1.39,2.13-.34.82-.51,1.69-.51,2.62s.17,1.8.51,2.62c.34.82.8,1.53,1.39,2.14.58.6,1.27,1.08,2.05,1.43.78.35,1.62.52,2.52.52s1.71-.17,2.5-.52c.79-.35,1.48-.82,2.06-1.43.58-.61,1.04-1.32,1.39-2.14.34-.82.51-1.69.51-2.62s-.17-1.8-.51-2.62c-.34-.82-.8-1.53-1.39-2.13ZM113.33,57.26c-.2.54-.47,1-.81,1.41-.34.4-.75.72-1.22.95-.47.23-.96.35-1.49.35s-1.02-.12-1.49-.35c-.47-.23-.88-.55-1.23-.95-.35-.4-.63-.87-.82-1.41-.2-.54-.3-1.11-.3-1.71s.1-1.18.3-1.71.47-1,.82-1.39c.35-.39.76-.71,1.23-.94.47-.23.96-.35,1.49-.35s1.02.12,1.49.35c.47.23.87.54,1.22.94.34.39.61.86.81,1.39.2.54.3,1.11.3,1.71s-.1,1.18-.3,1.71Z"/><path class="cls-1" d="M122.94,42.65c-.52.21-.98.52-1.39.95-.4.43-.72.97-.96,1.64-.23.67-.35,1.45-.35,2.36v1.55l-2.21.53v1.77h2.21v10.49h2.61v-10.49h3.98v-2.3h-3.98v-1.95c0-.98.2-1.69.61-2.14.4-.44.97-.67,1.71-.67.47,0,1.02.1,1.67.29v-1.89c-.75-.3-1.5-.45-2.23-.45-.59,0-1.15.1-1.67.31Z"/><path class="cls-1" d="M139.9,53.17c-.31-.99-.73-1.8-1.28-2.44s-1.19-1.11-1.94-1.42c-.74-.3-1.56-.45-2.44-.45s-1.67.17-2.42.52c-.75.35-1.41.82-1.98,1.43-.57.6-1.01,1.32-1.35,2.13-.33.82-.5,1.69-.5,2.62s.17,1.8.52,2.62c.35.82.83,1.53,1.44,2.14.61.6,1.32,1.08,2.14,1.43.82.35,1.69.52,2.62.52,1.08,0,2.07-.19,2.97-.56s1.67-.87,2.3-1.5l-1.62-1.6c-.41.41-.91.74-1.49.99s-1.22.37-1.9.37c-.5,0-.98-.08-1.44-.24-.46-.16-.87-.39-1.24-.68-.37-.29-.69-.64-.96-1.04-.27-.4-.47-.83-.59-1.29h9.58c0-1.37-.15-2.55-.46-3.54ZM130.75,54.41c.11-.46.27-.89.5-1.28.22-.39.49-.73.81-1.01.31-.28.65-.51,1.02-.67s.76-.24,1.17-.24c.5,0,.95.08,1.33.25.39.17.72.4,1.01.69s.51.64.67,1.03c.16.39.26.8.3,1.23h-6.81Z"/><path class="cls-1" d="M151.1,55.84c-.38-.32-.88-.61-1.51-.88-.63-.27-1.42-.51-2.37-.75-.21-.05-.45-.12-.7-.19-.25-.07-.48-.16-.7-.28-.22-.12-.4-.26-.55-.44-.15-.18-.23-.39-.23-.64,0-.23.07-.43.2-.61s.3-.33.5-.45.41-.22.65-.28c.23-.06.46-.09.67-.09.63,0,1.12.14,1.48.43.36.29.59.64.7,1.07l2.34-.56c-.09-.48-.27-.92-.55-1.31s-.62-.73-1.02-1.01c-.4-.28-.86-.5-1.36-.66-.5-.16-1.03-.24-1.59-.24-.63,0-1.22.1-1.79.31-.56.2-1.05.48-1.47.83-.42.35-.75.75-1,1.2s-.37.94-.37,1.46c0,.55.11,1.03.34,1.43.22.4.53.75.92,1.04s.84.54,1.36.75c.52.2,1.08.38,1.67.52.22.05.49.12.81.19.32.07.63.17.93.31.3.13.55.3.75.49.21.2.31.44.31.72,0,.23-.06.44-.19.61-.13.18-.27.34-.43.48-.48.39-1.09.59-1.8.59-.57,0-1.09-.11-1.53-.33-.45-.22-.82-.64-1.1-1.27l-2.21.99c.3.91.89,1.63,1.76,2.18s1.86.81,2.97.81c.73,0,1.42-.1,2.05-.31s1.18-.49,1.64-.85c.46-.36.81-.79,1.07-1.29s.39-1.03.39-1.6c0-.48-.08-.91-.23-1.29-.15-.38-.42-.73-.79-1.05Z"/><path class="cls-1" d="M162.67,55.84c-.38-.32-.88-.61-1.51-.88-.63-.27-1.42-.51-2.37-.75-.21-.05-.45-.12-.7-.19-.25-.07-.48-.16-.7-.28-.22-.12-.4-.26-.55-.44-.15-.18-.23-.39-.23-.64,0-.23.07-.43.2-.61s.3-.33.5-.45.41-.22.65-.28c.23-.06.46-.09.67-.09.63,0,1.12.14,1.48.43.36.29.59.64.7,1.07l2.34-.56c-.09-.48-.27-.92-.55-1.31s-.62-.73-1.02-1.01c-.4-.28-.86-.5-1.36-.66-.5-.16-1.03-.24-1.59-.24-.63,0-1.22.1-1.79.31-.56.2-1.05.48-1.47.83-.42.35-.75.75-1,1.2s-.37.94-.37,1.46c0,.55.11,1.03.34,1.43.22.4.53.75.92,1.04s.84.54,1.36.75c.52.2,1.08.38,1.67.52.22.05.49.12.81.19.32.07.63.17.93.31.3.13.55.3.75.49.21.2.31.44.31.72,0,.23-.06.44-.19.61-.13.18-.27.34-.43.48-.48.39-1.09.59-1.8.59-.57,0-1.09-.11-1.53-.33-.45-.22-.82-.64-1.1-1.27l-2.21.99c.3.91.89,1.63,1.76,2.18s1.86.81,2.97.81c.73,0,1.42-.1,2.05-.31s1.18-.49,1.64-.85c.46-.36.81-.79,1.07-1.29s.39-1.03.39-1.6c0-.48-.08-.91-.23-1.29-.15-.38-.42-.73-.79-1.05Z"/><path class="cls-1" d="M167.44,43.04c-.47,0-.86.16-1.18.48-.32.32-.48.71-.48,1.17s.16.86.48,1.19c.32.33.72.49,1.18.49s.86-.16,1.18-.49c.32-.33.49-.73.49-1.19s-.16-.85-.49-1.17c-.32-.32-.72-.48-1.18-.48Z"/><polygon class="cls-1" points="166.15 49.15 166.15 61.94 168.79 61.94 168.76 49.15 166.15 49.15"/><path class="cls-1" d="M181.91,50.8c-.58-.61-1.27-1.08-2.06-1.43-.79-.35-1.62-.52-2.5-.52s-1.74.17-2.52.52c-.78.35-1.46.82-2.05,1.43-.58.6-1.05,1.32-1.39,2.13-.34.82-.51,1.69-.51,2.62s.17,1.8.51,2.62c.34.82.8,1.53,1.39,2.14.58.6,1.27,1.08,2.05,1.43.78.35,1.62.52,2.52.52s1.71-.17,2.5-.52c.79-.35,1.48-.82,2.06-1.43.58-.61,1.04-1.32,1.39-2.14.34-.82.51-1.69.51-2.62s-.17-1.8-.51-2.62c-.34-.82-.8-1.53-1.39-2.13ZM180.85,57.26c-.2.54-.47,1-.81,1.41-.34.4-.75.72-1.22.95-.47.23-.96.35-1.49.35s-1.02-.12-1.49-.35c-.47-.23-.88-.55-1.23-.95-.35-.4-.63-.87-.82-1.41-.2-.54-.3-1.11-.3-1.71s.1-1.18.3-1.71.47-1,.82-1.39c.35-.39.76-.71,1.23-.94.47-.23.96-.35,1.49-.35s1.02.12,1.49.35c.47.23.87.54,1.22.94.34.39.61.86.81,1.39.2.54.3,1.11.3,1.71s-.1,1.18-.3,1.71Z"/><path class="cls-1" d="M195.26,49.87c-.51-.39-1.06-.66-1.66-.8-.59-.14-1.12-.21-1.59-.21-.72,0-1.38.13-1.99.4-.61.27-1.13.61-1.56,1.01l-.54-1.12h-2.07v12.79h2.61v-7.79c0-.53.11-.98.34-1.35.22-.36.5-.67.82-.91s.67-.41,1.04-.52c.37-.11.7-.16.98-.16.38,0,.74.05,1.09.15.35.1.66.26.94.49s.5.54.67.92.26.85.26,1.4v7.77h2.48v-7.74c0-1.1-.18-2-.53-2.7-.35-.69-.78-1.24-1.29-1.63Z"/><path class="cls-1" d="M209.9,50.56c-.52-.59-1.11-1.02-1.78-1.29-.66-.28-1.36-.41-2.07-.41-.9,0-1.74.17-2.52.52-.78.35-1.46.82-2.05,1.43-.58.6-1.05,1.32-1.39,2.13-.34.82-.51,1.69-.51,2.62s.17,1.8.51,2.62c.34.82.8,1.53,1.39,2.14.58.6,1.26,1.08,2.05,1.43.78.35,1.62.52,2.52.52.72,0,1.43-.15,2.13-.45.7-.3,1.27-.75,1.72-1.33l.4,1.47h2.21v-12.79h-2.21l-.4,1.42ZM209.54,57.26c-.2.53-.47,1-.81,1.4s-.75.72-1.21.95c-.47.23-.96.35-1.48.35s-1.01-.12-1.48-.35-.87-.55-1.21-.95c-.34-.4-.61-.87-.81-1.4-.2-.53-.3-1.1-.3-1.71s.1-1.17.3-1.71c.2-.53.47-1,.81-1.4.34-.4.74-.72,1.21-.95.47-.23.96-.35,1.48-.35s1.01.12,1.48.35c.47.23.87.55,1.21.95s.61.87.81,1.4c.2.53.3,1.1.3,1.71s-.1,1.17-.3,1.71Z"/><rect class="cls-1" x="215.31" y="42.45" width="2.61" height="19.49"/><path class="cls-1" d="M229.88,56.89c-.15-.38-.42-.73-.79-1.05s-.88-.61-1.51-.88c-.63-.27-1.42-.51-2.37-.75-.21-.05-.45-.12-.7-.19-.25-.07-.48-.16-.7-.28-.22-.12-.4-.26-.55-.44-.15-.18-.23-.39-.23-.64,0-.23.07-.43.2-.61s.3-.33.5-.45.41-.22.65-.28c.23-.06.46-.09.67-.09.63,0,1.12.14,1.48.43.36.29.59.64.7,1.07l2.34-.56c-.09-.48-.27-.92-.55-1.31s-.62-.73-1.02-1.01c-.4-.28-.86-.5-1.36-.66-.5-.16-1.03-.24-1.59-.24-.63,0-1.22.1-1.79.31-.56.2-1.05.48-1.47.83-.42.35-.75.75-1,1.2s-.37.94-.37,1.46c0,.55.11,1.03.34,1.43.22.4.53.75.92,1.04s.84.54,1.36.75c.52.2,1.08.38,1.67.52.22.05.49.12.81.19.32.07.63.17.93.31.3.13.55.3.75.49.21.2.31.44.31.72,0,.23-.06.44-.19.61-.13.18-.27.34-.43.48-.48.39-1.09.59-1.8.59-.57,0-1.09-.11-1.53-.33-.45-.22-.82-.64-1.1-1.27l-2.21.99c.3.91.89,1.63,1.76,2.18s1.86.81,2.97.81c.73,0,1.42-.1,2.05-.31s1.18-.49,1.64-.85c.46-.36.81-.79,1.07-1.29s.39-1.03.39-1.6c0-.48-.08-.91-.23-1.29Z"/></g></svg>