<svg width="815" height="808" viewBox="0 0 815 808" fill="none" xmlns="http://www.w3.org/2000/svg">
<g clip-path="url(#clip0_773_17826)">
<rect x="69" y="94" width="668" height="635" fill="white"/>
<path d="M753.191 746.637C721.685 778.795 673.989 791.921 613.493 799.359C553.434 806.469 480.467 807.781 407.609 808C334.752 807.781 261.785 806.359 201.726 799.359C141.23 791.921 93.5336 778.795 62.0275 746.637C29.6463 715.354 16.4094 668.101 8.86107 608.16C1.64094 548.547 0.218792 476.246 0 403.945C0.218792 331.644 1.64094 259.343 8.75168 199.84C16.3 139.899 29.4275 92.5366 61.9181 61.3629C93.4242 29.2048 141.121 16.0791 201.617 8.64113C261.675 1.64072 334.642 0.218763 407.5 0C480.358 0.218763 553.325 1.64072 613.383 8.64113C673.879 16.0791 721.576 29.2048 753.082 61.3629C785.463 92.646 798.7 139.899 806.248 199.84C813.359 259.453 814.781 331.754 815 403.945C814.781 476.246 813.359 548.547 806.248 608.051C798.7 667.992 785.572 715.354 753.082 746.528L753.191 746.637ZM703.525 336.457C695.321 319.394 675.958 310.534 657.251 306.815C628.48 301.127 598.724 304.299 569.625 308.346C539.103 312.721 516.787 317.097 486.703 319.503C555.185 247.858 610.648 189.777 619.509 180.589C613.602 214.716 600.803 276.516 599.271 280.782L624.213 294.892C626.62 290.626 663.158 148.43 666.112 128.523C667.097 121.96 665.018 114.194 659.33 110.694C656.048 108.725 652 108.616 648.062 108.725C585.378 110.694 458.15 157.619 458.15 157.619L471.059 176.76C471.059 176.76 534.837 164.072 586.034 155.759C574.548 168.775 478.936 266.89 379.385 368.506C380.151 367.303 380.917 366.318 381.573 365.224C382.23 362.709 383.87 350.677 383.87 349.036C389.997 284.72 374.353 146.243 374.353 146.243L318.561 161.994C319.546 226.857 319.327 293.361 307.403 357.239C303.464 378.022 296.572 398.804 282.789 414.774C260.362 440.807 227.434 447.698 207.962 416.743C176.456 366.646 171.97 304.627 163.875 247.749C144.95 252.015 124.93 257.265 106.88 264.156C107.974 304.408 110.271 344.661 116.507 384.475C122.633 423.962 137.511 464.105 167.923 490.357C191.662 510.92 216.385 511.358 244.609 506.217C185.207 566.705 142.215 610.676 142.215 610.676L179.081 633.537C180.503 634.412 182.144 634.302 183.457 633.318C192.646 626.318 341.972 470.668 463.62 343.567C462.417 353.192 457.056 379.553 468.543 382.944C473.028 384.257 477.842 382.944 482.217 381.522C526.96 368.396 574.329 361.724 620.385 369.162C623.885 369.709 627.386 370.365 629.902 372.99C630.558 373.647 631.105 374.522 631.543 375.397C632.965 379.225 630.558 381.632 628.261 383.71C586.253 421.993 533.852 441.026 479.045 453.386C477.513 453.714 475.872 454.042 474.341 453.386C472.919 452.839 472.044 451.417 471.278 449.995C463.73 435.885 467.996 418.602 460.229 404.602C457.713 400.117 451.805 399.133 448.195 399.679C439.225 401.101 432.223 408.539 428.832 416.743C413.517 453.714 422.159 545.704 424.566 584.425C427.082 625.005 436.052 650.491 441.413 690.634C441.632 692.275 441.85 693.915 442.835 695.228C443.819 696.65 445.46 697.415 447.211 698.072C455.197 701.025 481.561 693.587 484.405 689.431C493.376 676.195 490.969 661.976 491.516 646.662C492.172 623.255 492.391 599.847 492.391 576.549C492.391 570.861 491.188 515.296 484.077 515.296C525.648 507.092 560.436 501.185 597.302 485.106C623.01 473.949 647.734 460.058 667.862 440.807C687.991 421.556 703.197 396.507 707.245 369.053C708.886 358.005 708.558 346.301 703.635 336.238L703.525 336.457Z" fill="#007CA6"/>
</g>
<defs>
<clipPath id="clip0_773_17826">
<rect width="815" height="808" fill="white"/>
</clipPath>
</defs>
</svg>
