<?xml version="1.0" encoding="UTF-8"?><svg id="Layer_2" xmlns="http://www.w3.org/2000/svg" viewBox="0 0 74.5 73.87"><defs><style>.cls-1{fill:#fdfdfb;}</style></defs><g id="Layer_1-2"><path id="white_icon" class="cls-1" d="M68.85,68.26c-2.88,2.94-7.24,4.14-12.77,4.82-5.49.65-12.16.77-18.82.79-6.66-.02-13.33-.15-18.82-.79-5.53-.68-9.89-1.88-12.77-4.82-2.96-2.86-4.17-7.18-4.86-12.66C.15,50.15.02,43.54,0,36.93c.02-6.61.15-13.22.8-18.66.69-5.48,1.89-9.81,4.86-12.66C8.54,2.67,12.9,1.47,18.43.79,23.92.15,30.59.02,37.25,0c6.66.02,13.33.15,18.82.79,5.53.68,9.89,1.88,12.77,4.82,2.96,2.86,4.17,7.18,4.86,12.66.65,5.45.78,12.06.8,18.66-.02,6.61-.15,13.22-.8,18.66-.69,5.48-1.89,9.81-4.86,12.66ZM64.31,30.76c-.75-1.56-2.52-2.37-4.23-2.71-2.63-.52-5.35-.23-8.01.14-2.79.4-4.83.8-7.58,1.02,6.26-6.55,11.33-11.86,12.14-12.7-.54,3.12-1.71,8.77-1.85,9.16l2.28,1.29c.22-.39,3.56-13.39,3.83-15.21.09-.6-.1-1.31-.62-1.63-.3-.18-.67-.19-1.03-.18-5.73.18-17.36,4.47-17.36,4.47l1.18,1.75s5.83-1.16,10.51-1.92c-1.05,1.19-9.79,10.16-18.89,19.45.07-.11.14-.2.2-.3.06-.23.21-1.33.21-1.48.56-5.88-.87-18.54-.87-18.54l-5.1,1.44c.09,5.93.07,12.01-1.02,17.85-.36,1.9-.99,3.8-2.25,5.26-2.05,2.38-5.06,3.01-6.84.18-2.88-4.58-3.29-10.25-4.03-15.45-1.73.39-3.56.87-5.21,1.5.1,3.68.31,7.36.88,11,.56,3.61,1.92,7.28,4.7,9.68,2.17,1.88,4.43,1.92,7.01,1.45-5.43,5.53-9.36,9.55-9.36,9.55l3.37,2.09c.13.08.28.07.4-.02.84-.64,14.49-14.87,25.61-26.49-.11.88-.6,3.29.45,3.6.41.12.85,0,1.25-.13,4.09-1.2,8.42-1.81,12.63-1.13.32.05.64.11.87.35.06.06.11.14.15.22.13.35-.09.57-.3.76-3.84,3.5-8.63,5.24-13.64,6.37-.14.03-.29.06-.43,0-.13-.05-.21-.18-.28-.31-.69-1.29-.3-2.87-1.01-4.15-.23-.41-.77-.5-1.1-.45-.82.13-1.46.81-1.77,1.56-1.4,3.38-.61,11.79-.39,15.33.23,3.71,1.05,6.04,1.54,9.71.02.15.04.3.13.42.09.13.24.2.4.26.73.27,3.14-.41,3.4-.79.82-1.21.6-2.51.65-3.91.06-2.14.08-4.28.08-6.41,0-.52-.11-5.6-.76-5.6,3.8-.75,6.98-1.29,10.35-2.76,2.35-1.02,4.61-2.29,6.45-4.05,1.84-1.76,3.23-4.05,3.6-6.56.15-1.01.12-2.08-.33-3Z"/></g></svg>