<svg width="25" height="25" viewBox="0 0 25 25" fill="none" xmlns="http://www.w3.org/2000/svg">
<path d="M20.6137 4.00672C21.0075 4.62113 21.0088 5.41682 21.0116 7.0082L21.029 17.0021C21.0318 18.5935 21.0331 19.3892 20.6415 20.005C20.5716 20.1149 20.4932 20.2192 20.407 20.317C19.9243 20.8643 19.1594 21.0842 17.6297 21.5241C16.0962 21.965 15.3294 22.1855 14.7734 21.8578C14.677 21.8009 14.5872 21.7335 14.5058 21.6567C14.0363 21.2138 14.0349 20.4161 14.0321 18.8207L14.0085 5.21395C14.0057 3.61855 14.0043 2.82085 14.4723 2.37634C14.5534 2.29925 14.643 2.23149 14.7392 2.17432C15.2941 1.84465 16.0616 2.06246 17.5967 2.49808C19.1279 2.93261 19.8935 3.14987 20.3781 3.6955C20.4646 3.79294 20.5434 3.897 20.6137 4.00672Z" stroke="#0A0A0A" stroke-width="2" stroke-linecap="round" stroke-linejoin="round"/>
<path d="M14.0068 4.0174L11.9898 4.02091C10.0881 4.02421 9.13722 4.02587 8.54746 4.61268C8.21865 4.93984 8.07367 5.37766 8.01031 6.02783M14.0346 20.0174L12.0176 20.0209C10.1159 20.0242 9.16503 20.0258 8.57323 19.4411C8.24329 19.1151 8.09679 18.6778 8.03117 18.0278" stroke="#0A0A0A" stroke-width="2" stroke-linecap="round" stroke-linejoin="round"/>
<path d="M10.0209 12.0243L3.02095 12.0364M8.51665 9.52682C8.51665 9.52682 11.0198 11.3637 11.021 12.0225C11.0221 12.6813 8.52532 14.5268 8.52532 14.5268" stroke="#0A0A0A" stroke-width="2" stroke-linecap="round" stroke-linejoin="round"/>
</svg>
