<svg width="54" height="58" viewBox="0 0 54 58" fill="none" xmlns="http://www.w3.org/2000/svg">
<path d="M19.3574 46.2852C19.3574 50.5061 22.7791 53.9276 27 53.9277C31.2209 53.9276 34.6436 50.5061 34.6436 46.2852H38.6436C38.6436 52.7152 33.43 57.9276 27 57.9277C20.57 57.9276 15.3574 52.7152 15.3574 46.2852H19.3574ZM27 0C37.6512 0 46.2861 8.63493 46.2861 19.2861V36.5713C46.2864 37.6757 47.1817 38.5713 48.2861 38.5713H54V42.4287H0V38.5713H5.71387C6.8183 38.5713 7.71364 37.6757 7.71387 36.5713V19.2861C7.71387 8.63493 16.3488 5.15449e-07 27 0ZM27 4C18.5579 4 11.7139 10.8441 11.7139 19.2861V36.5713C11.7138 37.2195 11.6102 37.8439 11.4199 38.4287H42.5801C42.3898 37.8439 42.2862 37.2195 42.2861 36.5713V19.2861C42.2861 10.8441 35.4421 4 27 4Z" fill="white"/>
</svg>
