<svg width="28" height="29" viewBox="0 0 28 29" fill="none" xmlns="http://www.w3.org/2000/svg">
<path d="M13.6367 26.3852C19.9318 26.3742 25.1348 21.1418 25.1238 14.858C25.1129 8.56295 19.8805 3.35997 13.5854 3.37091C7.30163 3.38183 2.09864 8.60295 2.10958 14.898C2.1205 21.1818 7.35292 26.3961 13.6367 26.3852ZM13.6334 24.4673C8.30851 24.4766 4.04797 20.2195 4.03872 14.8947C4.02946 9.5698 8.26389 5.29802 13.5888 5.28877C18.9136 5.27951 23.1967 9.53649 23.206 14.8614C23.2152 20.1862 18.9582 24.458 13.6334 24.4673ZM13.6048 14.5283C15.2068 14.5368 16.5018 13.1582 16.4987 11.3532C16.4957 9.66095 15.1959 8.2643 13.5939 8.26708C11.992 8.26987 10.697 9.67103 10.7 11.3633C10.7031 13.1683 12.0028 14.5198 13.6048 14.5283ZM8.45973 20.6067L18.771 20.5888C19.2223 20.588 19.4361 20.283 19.4354 19.8769C19.4332 18.6359 17.5662 15.4352 13.6064 15.4421C9.6466 15.449 7.79072 18.6562 7.79288 19.8972C7.79359 20.3033 8.00847 20.6075 8.45973 20.6067Z" fill="black"/>
</svg>
