<svg width="26" height="26" viewBox="0 0 26 26" fill="none" xmlns="http://www.w3.org/2000/svg">
<rect width="25" height="25" transform="translate(0 0.043457) rotate(-0.099584)" fill="white" fill-opacity="0.01" style="mix-blend-mode:multiply"/>
<path d="M21.1164 13.1007C21.116 12.9054 21.1157 12.71 21.1153 12.5069C21.115 12.3038 21.1147 12.1085 21.1143 11.9054L22.612 10.5903C22.8881 10.3461 23.069 10.0121 23.1227 9.64749C23.1763 9.28285 23.0994 8.91096 22.9054 8.59756L21.0563 5.47577C20.9188 5.23871 20.7215 5.04196 20.484 4.90525C20.2466 4.76853 19.9773 4.69667 19.7033 4.69687C19.5335 4.69586 19.3647 4.72254 19.2035 4.77586L17.3061 5.41978C16.978 5.20255 16.6358 5.0074 16.2817 4.83563L15.8798 2.86757C15.8078 2.50801 15.6115 2.18526 15.3255 1.9558C15.0394 1.72635 14.6818 1.60481 14.3152 1.61248L10.6589 1.61883C10.2923 1.61244 9.93503 1.73522 9.64978 1.96567C9.36452 2.19611 9.16941 2.51955 9.0986 2.87936L8.70358 4.8488C8.34758 5.02176 8.00342 5.2181 7.67335 5.43653L5.81281 4.76788C5.64969 4.72569 5.48081 4.71015 5.31273 4.72188C5.03873 4.72264 4.76974 4.79543 4.53275 4.93297C4.29577 5.07051 4.09912 5.26794 3.96253 5.50548L2.12421 8.63368C1.9424 8.94726 1.87528 9.31431 1.93433 9.67195C1.99339 10.0296 2.17496 10.3556 2.44793 10.5941L3.92684 11.943C3.92718 12.1384 3.92752 12.3337 3.92787 12.5368C3.92823 12.7399 3.92856 12.9352 3.92892 13.1384L2.45464 14.4534C2.1748 14.6945 1.98943 15.027 1.93142 15.3918C1.87342 15.7566 1.94653 16.1301 2.13779 16.4462L3.98697 19.568C4.12438 19.805 4.32172 20.0018 4.55918 20.1385C4.79664 20.2752 5.06588 20.347 5.33989 20.3469C5.50969 20.3479 5.67853 20.3212 5.83975 20.2679L7.73707 19.6239C8.06521 19.8412 8.40746 20.0363 8.76153 20.2081L9.16338 22.1762C9.23545 22.5357 9.43169 22.8585 9.71774 23.0879C10.0038 23.3174 10.3614 23.4389 10.7281 23.4312L14.4156 23.4248C14.7822 23.4312 15.1394 23.3084 15.4247 23.078C15.7099 22.8476 15.9051 22.5241 15.9759 22.1643L16.3709 20.1949C16.7269 20.0219 17.0711 19.8256 17.4011 19.6071L19.2929 20.2445C19.4543 20.2972 19.6232 20.3233 19.793 20.3217C20.067 20.321 20.336 20.2482 20.573 20.1106C20.81 19.9731 21.0066 19.7757 21.1432 19.5381L22.919 16.41C23.1008 16.0965 23.1679 15.7294 23.1089 15.3718C23.0498 15.0141 22.8683 14.6882 22.5953 14.4497L21.1164 13.1007ZM19.7278 18.7593L17.0465 17.8578C16.4201 18.3902 15.7039 18.8068 14.9315 19.088L14.3817 21.8936L10.6942 21.9L10.1346 19.1276C9.36729 18.8411 8.65352 18.4277 8.02315 17.9047L5.33717 18.7844L3.48799 15.6626L5.60973 13.7839C5.46387 12.9754 5.46243 12.1475 5.60548 11.3386L3.47713 9.41258L5.31545 6.28438L7.9967 7.18597C8.62307 6.65354 9.33928 6.23696 10.1118 5.95573L10.6616 3.15008L14.3491 3.14367L14.9086 5.91614C15.6759 6.20264 16.3897 6.61602 17.0201 7.13903L19.706 6.25936L21.5552 9.38115L19.4335 11.2598C19.5793 12.0683 19.5808 12.8962 19.4377 13.7052L21.5661 15.6311L19.7278 18.7593Z" fill="#161616"/>
<path d="M12.5298 17.2094C11.6027 17.211 10.6959 16.9376 9.92415 16.4239C9.1524 15.9102 8.55032 15.1791 8.19405 14.3232C7.83778 13.4673 7.74331 12.525 7.9226 11.6154C8.10188 10.7058 8.54687 9.86976 9.20129 9.21306C9.85571 8.55637 10.6902 8.10847 11.5991 7.92603C12.5081 7.74358 13.4508 7.83477 14.3079 8.18806C15.1651 8.54136 15.8982 9.1409 16.4146 9.91086C16.931 10.6808 17.2075 11.5866 17.2091 12.5137C17.2164 13.131 17.1005 13.7436 16.8682 14.3155C16.6358 14.8875 16.2917 15.4073 15.8559 15.8446C15.4202 16.2819 14.9015 16.6278 14.3304 16.8622C13.7592 17.0965 13.1471 17.2145 12.5298 17.2094ZM12.5162 9.39687C12.1032 9.38796 11.6926 9.46293 11.3094 9.61724C10.9262 9.77154 10.5782 10.002 10.2866 10.2946C9.99499 10.5872 9.76576 10.936 9.61279 11.3197C9.45982 11.7035 9.38628 12.1143 9.39661 12.5273C9.38771 12.9403 9.46268 13.3509 9.61699 13.7341C9.77129 14.1173 10.0017 14.4653 10.2944 14.7569C10.587 15.0485 10.9357 15.2777 11.3195 15.4307C11.7032 15.5837 12.114 15.6572 12.527 15.6469C12.9401 15.6558 13.3506 15.5808 13.7338 15.4265C14.1171 15.2722 14.465 15.0417 14.7566 14.7491C15.0482 14.4565 15.2775 14.1077 15.4304 13.724C15.5834 13.3402 15.6569 12.9294 15.6466 12.5164C15.6555 12.1034 15.5805 11.6929 15.4262 11.3096C15.2719 10.9264 15.0415 10.5785 14.7489 10.2869C14.4562 9.99524 14.1075 9.76601 13.7237 9.61304C13.34 9.46007 12.9292 9.38653 12.5162 9.39687Z" fill="#161616"/>
</svg>
