<svg width="28" height="28" viewBox="0 0 28 28" fill="none" xmlns="http://www.w3.org/2000/svg">
<path fill-rule="evenodd" clip-rule="evenodd" d="M14.0001 4.66675C8.85275 4.66675 4.66675 8.85275 4.66675 14.0001C4.66675 19.1474 8.85275 23.3334 14.0001 23.3334C19.1474 23.3334 23.3334 19.1474 23.3334 14.0001C23.3334 8.85275 19.1474 4.66675 14.0001 4.66675ZM14.0001 21.2591C12.0756 21.2566 10.2307 20.491 8.86992 19.1302C7.50913 17.7694 6.74355 15.9245 6.74108 14.0001C6.74355 12.0756 7.50913 10.2307 8.86992 8.86992C10.2307 7.50913 12.0756 6.74355 14.0001 6.74108C15.9245 6.74355 17.7694 7.50913 19.1302 8.86992C20.491 10.2307 21.2566 12.0756 21.2591 14.0001C21.2566 15.9245 20.491 17.7694 19.1302 19.1302C17.7694 20.491 15.9245 21.2566 14.0001 21.2591ZM15.0372 13.5707V9.85608C15.0372 9.28558 14.5706 8.81891 14.0001 8.81891C13.4296 8.81891 12.9629 9.28558 12.9629 9.85725V14.0047C12.9629 14.2941 13.0831 14.5542 13.2756 14.7432L15.8364 17.3029C16.0312 17.4968 16.2948 17.6056 16.5697 17.6056C16.8445 17.6056 17.1081 17.4968 17.3029 17.3029C17.4964 17.1082 17.605 16.8448 17.605 16.5702C17.605 16.2957 17.4964 16.0323 17.3029 15.8376L15.0372 13.5707Z" fill="black"/>
</svg>
